<?xml version="1.0" encoding="utf-8"?>
<!-- Generator: Adobe Illustrator 19.1.0, SVG Export Plug-In . SVG Version: 6.00 Build 0)  -->
<svg version="1.1" id="Layer_1" xmlns="http://www.w3.org/2000/svg" xmlns:xlink="http://www.w3.org/1999/xlink" x="0px" y="0px"
	 viewBox="0 0 125 30" style="enable-background:new 0 0 125 30;" xml:space="preserve">
<style type="text/css">
	.st0{fill:#FFFFFF;}
</style>
<g>
	<path class="st0" d="M37,21.3L37,21.3c-3.9,3-7.8,4.8-12.7,5.8c-7.5,1.6-14.5,0.7-18.2-2.5c-1.7-1.4-2.6-3.2-2.8-5.3
		c-0.5-5.4,3.6-11,10.9-15l0.1,0L14.2,4l-0.1,0C5.6,7.5-0.4,13.9,0,20c0.2,2.5,1.3,4.7,3.2,6.4c4,3.4,11,4.5,18.8,2.9
		c6.3-1.3,11.3-4.1,15-7.7l0.1-0.1L37,21.3z"/>
	<path class="st0" d="M42.7,6.6c-1.5-3.3-4.8-5.6-9.2-6.3C26.3-1,17.7,2.1,13.4,7.1l-0.1,0.1l0.1,0.2l0.1-0.1
		c2.9-2.4,7.1-4.2,11.4-4.8c6.3-1,11.6,0.6,14.1,4.2c2.5,3.5,1.8,10.3-1.5,14.2l-0.1,0.1l0.2,0.2l0.1-0.1
		C42.7,16.3,45.1,11.9,42.7,6.6z"/>
	<path class="st0" d="M16.2,16.1h-4.8L11,18.8h5.3l-0.4,2.2h-8l2.2-11.8h7.6l-0.4,2.2h-5l-0.5,2.4h4.8L16.2,16.1z"/>
	<path class="st0" d="M21.1,11.5h-2.9l0.4-2.2h10.1c-0.6,0.1-1.1,0.5-1.6,1c-0.6,0.6-0.7,1.3-0.7,1.3h-2.7l-1.8,9.6h-2.6L21.1,11.5z
		"/>
	<path class="st0" d="M26.5,18.2c0.8,0.5,1.9,0.9,3.2,0.9c1,0,1.9-0.4,1.9-1.3c0-0.6-0.5-1.1-1.7-1.6c-1.4-0.6-2.8-1.5-2.8-3.2
		C27,10.5,29.3,9,32,9c1.6,0,2.6,0.3,3.2,0.6l-0.9,2.2c-0.4-0.2-1.4-0.6-2.5-0.6c-1.3,0-1.9,0.6-1.9,1.1c0,0.7,0.9,1.2,1.9,1.6
		c1.6,0.7,2.7,1.6,2.7,3.2c0,2.7-2.4,4-5.1,4c-1.8,0-3.1-0.5-3.8-1L26.5,18.2z"/>
	<path class="st0" d="M42.1,23.9c-0.3,0.3-0.7,0.5-1.2,0.5c-0.5,0-0.8-0.2-1.2-0.5c-0.3-0.3-0.5-0.7-0.5-1.2c0-0.4,0.2-0.8,0.5-1.1
		c0.3-0.3,0.7-0.5,1.1-0.5c0.5,0,0.8,0.2,1.2,0.5c0.3,0.3,0.5,0.7,0.5,1.1C42.6,23.2,42.4,23.5,42.1,23.9z M39.9,21.7
		c-0.3,0.3-0.4,0.6-0.4,1c0,0.4,0.1,0.7,0.4,1c0.3,0.3,0.6,0.4,1,0.4c0.4,0,0.7-0.1,1-0.4c0.3-0.3,0.4-0.6,0.4-1
		c0-0.4-0.1-0.7-0.4-1c-0.3-0.3-0.6-0.4-1-0.4C40.5,21.3,40.2,21.4,39.9,21.7z M40.9,21.8c0.2,0,0.4,0,0.5,0.1
		c0.2,0.1,0.3,0.2,0.3,0.5c0,0.2-0.1,0.3-0.2,0.4c-0.1,0-0.1,0.1-0.3,0.1c0.1,0,0.2,0.1,0.3,0.2c0.1,0.1,0.1,0.2,0.1,0.3v0.1
		c0,0,0,0.1,0,0.1c0,0,0,0.1,0,0.1l0,0h-0.3c0,0,0,0,0,0c0,0,0,0,0,0l0-0.1v-0.1c0-0.2-0.1-0.3-0.2-0.4c-0.1,0-0.2-0.1-0.3-0.1h-0.2
		v0.7h-0.3v-1.8H40.9z M41.2,22.1C41.2,22,41,22,40.9,22h-0.3v0.6h0.3c0.1,0,0.2,0,0.3,0c0.1,0,0.2-0.1,0.2-0.3
		C41.4,22.2,41.3,22.1,41.2,22.1z"/>
	<path class="st0" d="M124.5,28.4c-0.3,0.3-0.7,0.5-1.2,0.5c-0.5,0-0.8-0.2-1.2-0.5c-0.3-0.3-0.5-0.7-0.5-1.2c0-0.4,0.2-0.8,0.5-1.1
		c0.3-0.3,0.7-0.5,1.1-0.5c0.5,0,0.8,0.2,1.2,0.5c0.3,0.3,0.5,0.7,0.5,1.1C125,27.7,124.8,28,124.5,28.4z M122.4,26.2
		c-0.3,0.3-0.4,0.6-0.4,1c0,0.4,0.1,0.7,0.4,1c0.3,0.3,0.6,0.4,1,0.4c0.4,0,0.7-0.1,1-0.4c0.3-0.3,0.4-0.6,0.4-1
		c0-0.4-0.1-0.7-0.4-1c-0.3-0.3-0.6-0.4-1-0.4C123,25.8,122.7,26,122.4,26.2z M123.3,26.3c0.2,0,0.4,0,0.5,0.1
		c0.2,0.1,0.3,0.2,0.3,0.5c0,0.2-0.1,0.3-0.2,0.4c-0.1,0-0.1,0.1-0.3,0.1c0.1,0,0.2,0.1,0.3,0.2c0.1,0.1,0.1,0.2,0.1,0.3v0.1
		c0,0,0,0.1,0,0.1c0,0,0,0.1,0,0.1l0,0h-0.3c0,0,0,0,0,0c0,0,0,0,0,0l0-0.1v-0.1c0-0.2-0.1-0.3-0.2-0.4c-0.1,0-0.2-0.1-0.4-0.1H123
		v0.7h-0.3v-1.8H123.3z M123.7,26.6c-0.1,0-0.2-0.1-0.4-0.1H123v0.6h0.3c0.1,0,0.2,0,0.3,0c0.1,0,0.2-0.1,0.2-0.3
		C123.8,26.7,123.8,26.6,123.7,26.6z"/>
	<path class="st0" d="M76.8,27.6c-1.9,0.7-5.1,1.5-8.4,1.5c-3.9,0-6.9-1.1-9.2-3.2c-2.2-2.1-3.2-5.2-3.2-8.4c0-4.9,2-9.5,5.5-12.6
		c3-2.6,7.2-4.1,11.8-4.1c3.5,0,6,0.7,7,1.2l-1.5,4c-1.3-0.6-3.4-1.1-5.9-1.1c-3,0-5.7,1-7.7,2.7c-2.5,2.1-4.1,5.7-4.1,9.5
		c0,5,2.7,7.8,7.9,7.8c1.5,0,2.7-0.2,3.6-0.6l1.3-6.9h-4.9l0.7-3.8h9.6L76.8,27.6z"/>
	<path class="st0" d="M86.4,1.7C88.2,1.3,90.8,1,93.2,1c2.7,0,5.3,0.5,7,1.8c1.5,1.1,2.6,2.8,2.6,5c0,4.1-2.9,6.8-6.4,7.9v0.1
		c1.8,0.7,2.6,2.6,2.8,5.2c0.3,3.4,0.5,6.6,0.9,7.7h-4.9c-0.2-0.7-0.5-3.3-0.7-6.6c-0.2-3.5-1.5-4.8-4-4.8h-2.3L86,28.9h-4.8
		L86.4,1.7z M88.9,13.9h2.7c3.7,0,6.2-2.3,6.2-5.3c0-2.6-2-3.7-4.7-3.7c-1.2,0-2,0.1-2.6,0.2L88.9,13.9z"/>
	<path class="st0" d="M120.5,16.6h-9.9l-1.6,8.2h11.2l-0.8,4.1h-16l5.3-27.6H124l-0.8,4.1h-10.6l-1.4,7.2h10L120.5,16.6z"/>
</g>
</svg>
